<svg width="84" height="28" viewBox="0 0 84 28" fill="none" xmlns="http://www.w3.org/2000/svg">
<path d="M40.3203 6.64842C40.3203 6.26249 40.4465 5.94335 40.7062 5.69101C40.966 5.43867 41.3223 5.3125 41.7676 5.3125C42.2054 5.3125 42.5617 5.43867 42.8215 5.69101C43.0812 5.94335 43.2148 6.26249 43.2148 6.64842C43.2148 7.04178 43.0812 7.36092 42.814 7.61326C42.5469 7.8656 42.198 7.99177 41.7601 7.99177C41.3223 7.99177 40.9734 7.8656 40.7062 7.61326C40.4539 7.36834 40.3203 7.04178 40.3203 6.64842ZM43.0664 18.8276H40.4762V9.14956H43.0664V18.8276Z" fill="white"/>
<path d="M44.543 13.9219C44.543 12.4376 44.8992 11.2426 45.6043 10.3372C46.3094 9.43173 47.2593 8.979 48.4617 8.979C49.523 8.979 50.3468 9.34267 50.9406 10.07L51.0445 9.15713H53.3897V18.5086C53.3897 19.3547 53.1968 20.0894 52.8108 20.7203C52.4249 21.3437 51.8831 21.8261 51.1855 22.1527C50.4878 22.4792 49.6714 22.6425 48.7363 22.6425C48.0238 22.6425 47.3336 22.5015 46.6656 22.2195C45.9902 21.9375 45.4855 21.5738 45.1367 21.1211L46.2797 19.5476C46.9254 20.2675 47.7047 20.6312 48.625 20.6312C49.3078 20.6312 49.8421 20.4457 50.2281 20.082C50.6066 19.7183 50.7995 19.1988 50.7995 18.5234V18.0039C50.2058 18.6793 49.4191 19.0133 48.4468 19.0133C47.2816 19.0133 46.3465 18.5605 45.6266 17.6477C44.9066 16.7422 44.5504 15.5324 44.5504 14.0332V13.9219H44.543ZM47.1258 14.1075C47.1258 14.9832 47.3039 15.6735 47.6527 16.1707C48.0015 16.668 48.4839 16.9203 49.1 16.9203C49.8867 16.9203 50.4507 16.6235 50.7921 16.0371V11.9626C50.4433 11.3688 49.8867 11.0794 49.1222 11.0794C48.4988 11.0794 48.0164 11.3317 47.6601 11.8438C47.3039 12.3411 47.1258 13.1055 47.1258 14.1075Z" fill="white"/>
<path d="M57.4742 9.1498L57.5558 10.2705C58.2461 9.40957 59.1738 8.97168 60.339 8.97168C61.3632 8.97168 62.1277 9.27597 62.6249 9.87714C63.1222 10.4783 63.3819 11.3763 63.3968 12.5787V18.8278H60.814V12.638C60.814 12.0888 60.6953 11.6955 60.4578 11.4431C60.2203 11.1982 59.8195 11.072 59.2703 11.072C58.5429 11.072 58.0011 11.3838 57.6375 11.9998V18.8204H55.0547V9.1498H57.4742Z" fill="white"/>
<path d="M65.0586 6.64842C65.0586 6.26249 65.1848 5.94335 65.4445 5.69101C65.7043 5.43867 66.0605 5.3125 66.5058 5.3125C66.9437 5.3125 67.3 5.43867 67.5597 5.69101C67.8195 5.94335 67.9531 6.26249 67.9531 6.64842C67.9531 7.04178 67.8195 7.36092 67.5523 7.61326C67.2851 7.8656 66.9363 7.99177 66.4984 7.99177C66.0605 7.99177 65.7117 7.8656 65.4445 7.61326C65.1922 7.36834 65.0586 7.04178 65.0586 6.64842ZM67.8047 18.8276H65.2144V9.14956H67.8047V18.8276Z" fill="white"/>
<path d="M72.7546 6.77441V9.14939H74.4097V11.0419H72.7546V15.8735C72.7546 16.2298 72.8214 16.4895 72.9625 16.6454C73.096 16.8013 73.3632 16.8755 73.7492 16.8755C74.0386 16.8755 74.291 16.8532 74.5062 16.8161V18.7755C74.0015 18.9313 73.4746 19.0055 72.9402 19.0055C71.1293 19.0055 70.2015 18.0927 70.1719 16.2595V11.0494H68.7617V9.15681H70.1719V6.78184H72.7546V6.77441Z" fill="white"/>
<path d="M80.0207 19.0056C78.6031 19.0056 77.4453 18.5677 76.5547 17.6993C75.6641 16.831 75.2188 15.6732 75.2188 14.2185V13.9662C75.2188 12.9939 75.4043 12.1256 75.7828 11.3611C76.1613 10.5967 76.6883 10.0029 77.3785 9.5873C78.0687 9.17168 78.8554 8.96387 79.7312 8.96387C81.0523 8.96387 82.0988 9.37949 82.8558 10.2182C83.6128 11.0494 83.9987 12.2369 83.9987 13.7658V14.8197H77.8386C77.9203 15.4505 78.1726 15.9552 78.5957 16.3411C79.0187 16.7196 79.5457 16.9126 80.1914 16.9126C81.1859 16.9126 81.9652 16.5489 82.5218 15.829L83.7909 17.254C83.405 17.8032 82.878 18.2337 82.2175 18.538C81.5644 18.8497 80.8296 19.0056 80.0207 19.0056ZM79.7312 11.0568C79.2191 11.0568 78.8035 11.2275 78.4843 11.5763C78.1652 11.9252 77.9648 12.4224 77.8683 13.0681H81.4605V12.8603C81.4456 12.2888 81.2972 11.8435 80.9929 11.5244C80.696 11.2127 80.273 11.0568 79.7312 11.0568Z" fill="white"/>
<path opacity="0.5" d="M26.9574 0.707445L20.3603 25.3405C20.3267 25.4523 20.1925 25.4859 20.1143 25.4076L15.6975 20.9909L19.0073 8.64638C19.0408 8.53456 18.9402 8.43393 18.8284 8.46747L6.4839 11.7772L2.08953 7.38286C2.01126 7.30459 2.04481 7.17041 2.15662 7.13686L26.7785 0.52854C26.8903 0.506176 26.9909 0.606811 26.9574 0.707445Z" fill="white"/>
<path opacity="0.5" d="M15.6969 20.991L13.9973 27.3645C13.9637 27.4763 13.8296 27.5098 13.7513 27.4316L0.0426575 13.7341C-0.0356137 13.6559 -0.00206907 13.5217 0.109747 13.4881L6.48326 11.7773L15.6969 20.991Z" fill="white"/>
<path d="M19.0078 8.6464L15.698 20.9909L6.48438 11.7772L18.8289 8.46749C18.9407 8.43395 19.0413 8.53458 19.0078 8.6464Z" fill="white"/>
</svg>
